<mxfile host="Electron" modified="2023-12-24T22:03:17.574Z" agent="Mozilla/5.0 (Windows NT 10.0; Win64; x64) AppleWebKit/537.36 (KHTML, like Gecko) draw.io/22.1.11 Chrome/114.0.5735.289 Electron/25.9.8 Safari/537.36" etag="W48vckGExLfK9fNgIxnz" version="22.1.11" type="device">
  <diagram name="Страница — 1" id="i_1nofuGDh9692WDA7i8">
    <mxGraphModel dx="918" dy="712" grid="1" gridSize="10" guides="1" tooltips="1" connect="1" arrows="1" fold="1" page="1" pageScale="1" pageWidth="827" pageHeight="1169" math="0" shadow="0">
      <root>
        <mxCell id="0" />
        <mxCell id="1" parent="0" />
        <mxCell id="fdjorWTr2BMh_Uc09yl2-3" value="Core" style="swimlane;whiteSpace=wrap;html=1;startSize=20;" vertex="1" parent="1">
          <mxGeometry x="40" y="320" width="330" height="140" as="geometry" />
        </mxCell>
        <mxCell id="fdjorWTr2BMh_Uc09yl2-6" value="" style="edgeStyle=orthogonalEdgeStyle;rounded=0;orthogonalLoop=1;jettySize=auto;html=1;" edge="1" parent="fdjorWTr2BMh_Uc09yl2-3" source="fdjorWTr2BMh_Uc09yl2-4" target="fdjorWTr2BMh_Uc09yl2-5">
          <mxGeometry relative="1" as="geometry" />
        </mxCell>
        <mxCell id="fdjorWTr2BMh_Uc09yl2-4" value="Выборка 10-ти платёжных транзакций" style="shape=process;whiteSpace=wrap;html=1;backgroundOutline=1;" vertex="1" parent="fdjorWTr2BMh_Uc09yl2-3">
          <mxGeometry x="20" y="70" width="120" height="60" as="geometry" />
        </mxCell>
        <mxCell id="fdjorWTr2BMh_Uc09yl2-5" value="Отправка в billing" style="shape=process;whiteSpace=wrap;html=1;backgroundOutline=1;" vertex="1" parent="fdjorWTr2BMh_Uc09yl2-3">
          <mxGeometry x="180" y="70" width="120" height="60" as="geometry" />
        </mxCell>
        <mxCell id="fdjorWTr2BMh_Uc09yl2-18" value="Schedule" style="text;html=1;strokeColor=none;fillColor=none;align=center;verticalAlign=middle;whiteSpace=wrap;rounded=0;" vertex="1" parent="fdjorWTr2BMh_Uc09yl2-3">
          <mxGeometry x="50" y="40" width="60" height="30" as="geometry" />
        </mxCell>
        <mxCell id="fdjorWTr2BMh_Uc09yl2-12" style="edgeStyle=orthogonalEdgeStyle;rounded=0;orthogonalLoop=1;jettySize=auto;html=1;entryX=1;entryY=0.5;entryDx=0;entryDy=0;exitX=0.5;exitY=0;exitDx=0;exitDy=0;exitPerimeter=0;" edge="1" parent="1" source="fdjorWTr2BMh_Uc09yl2-7" target="fdjorWTr2BMh_Uc09yl2-14">
          <mxGeometry relative="1" as="geometry">
            <Array as="points">
              <mxPoint x="610" y="420" />
              <mxPoint x="610" y="585" />
            </Array>
          </mxGeometry>
        </mxCell>
        <mxCell id="fdjorWTr2BMh_Uc09yl2-13" value="Передача данных в billing" style="edgeLabel;html=1;align=center;verticalAlign=middle;resizable=0;points=[];" vertex="1" connectable="0" parent="fdjorWTr2BMh_Uc09yl2-12">
          <mxGeometry x="-0.4157" y="1" relative="1" as="geometry">
            <mxPoint as="offset" />
          </mxGeometry>
        </mxCell>
        <mxCell id="fdjorWTr2BMh_Uc09yl2-7" value="GRPC" style="shape=cylinder3;whiteSpace=wrap;html=1;boundedLbl=1;backgroundOutline=1;size=15;rotation=90;labelBackgroundColor=none;labelBorderColor=none;horizontal=0;" vertex="1" parent="1">
          <mxGeometry x="481" y="350" width="40" height="140" as="geometry" />
        </mxCell>
        <mxCell id="fdjorWTr2BMh_Uc09yl2-11" value="Billing" style="swimlane;whiteSpace=wrap;html=1;" vertex="1" parent="1">
          <mxGeometry x="41" y="510" width="480" height="130" as="geometry" />
        </mxCell>
        <mxCell id="fdjorWTr2BMh_Uc09yl2-14" value="Сохранение полученных данных" style="shape=process;whiteSpace=wrap;html=1;backgroundOutline=1;" vertex="1" parent="fdjorWTr2BMh_Uc09yl2-11">
          <mxGeometry x="340" y="45" width="120" height="60" as="geometry" />
        </mxCell>
        <mxCell id="fdjorWTr2BMh_Uc09yl2-21" value="" style="edgeStyle=orthogonalEdgeStyle;rounded=0;orthogonalLoop=1;jettySize=auto;html=1;" edge="1" parent="fdjorWTr2BMh_Uc09yl2-11" source="fdjorWTr2BMh_Uc09yl2-15" target="fdjorWTr2BMh_Uc09yl2-20">
          <mxGeometry relative="1" as="geometry" />
        </mxCell>
        <mxCell id="fdjorWTr2BMh_Uc09yl2-15" value="Выборка 10-ти платёжных транзакций" style="shape=process;whiteSpace=wrap;html=1;backgroundOutline=1;" vertex="1" parent="fdjorWTr2BMh_Uc09yl2-11">
          <mxGeometry x="170" y="45" width="120" height="60" as="geometry" />
        </mxCell>
        <mxCell id="fdjorWTr2BMh_Uc09yl2-19" value="Schedule" style="text;html=1;strokeColor=none;fillColor=none;align=center;verticalAlign=middle;whiteSpace=wrap;rounded=0;" vertex="1" parent="fdjorWTr2BMh_Uc09yl2-11">
          <mxGeometry x="200" y="20" width="60" height="30" as="geometry" />
        </mxCell>
        <mxCell id="fdjorWTr2BMh_Uc09yl2-20" value="Расчёт коммисий" style="shape=process;whiteSpace=wrap;html=1;backgroundOutline=1;" vertex="1" parent="fdjorWTr2BMh_Uc09yl2-11">
          <mxGeometry x="20" y="45" width="120" height="60" as="geometry" />
        </mxCell>
        <mxCell id="fdjorWTr2BMh_Uc09yl2-17" style="edgeStyle=orthogonalEdgeStyle;rounded=0;orthogonalLoop=1;jettySize=auto;html=1;entryX=0.5;entryY=1;entryDx=0;entryDy=0;entryPerimeter=0;" edge="1" parent="1" source="fdjorWTr2BMh_Uc09yl2-5" target="fdjorWTr2BMh_Uc09yl2-7">
          <mxGeometry relative="1" as="geometry" />
        </mxCell>
      </root>
    </mxGraphModel>
  </diagram>
</mxfile>
